. 
  
http://www.torrenting.com/        :     Greatest Movie Tracker on The Net!!!
 
http://www.Torrenting.com          :     Once & For all ;)


               www . Torrenting . Com 

(((((((((((((= Enjoy No RAR releases =))))))))))))))))))))


...................................NFO:....................................

.[pre]  
ooooo ooo        ooooo       .o.         .oooooo.     o8o  ooooo      ooo oooooooooooo 
`888' `88.       .888'      .888.       d8P'  `Y8b    `"'  `888b.     `8' `888'     `8 
 888   888b     d'888      .8"888.     888           oooo   8 `88b.    8   888         
 888   8 Y88. .P  888     .8' `888.    888           `888   8   `88b.  8   888oooo8    
 888   8  `888'   888    .88ooo8888.   888     ooooo  888   8     `88b.8   888    "    
 888   8    Y     888   .8'     `888.  `88.    .88'   888   8       `888   888       o 
o888o o8o        o888o o88o     o8888o  `Y8bood8P'   o888o o8o        `8  o888ooooood8  
                                                



                  Another Fine Release Brought to you from - IMAGiNE                   
                                                 

******************************************************************************************                              
         Captain America The First Avenger 2011 TS READNFO XViD v2 - IMAGiNE                                                                
******************************************************************************************

Ripper ...........: IMAGiNE              IMDB Rating.......: 7.9/10                             
Video Codec.......: XViD                 Release Date......: 26/07/11
Audio Codec.......: MP3                  Theatre Date......: 22/07/11
Audio Bitrate.....: 128                  Runtime...........: 1h 53mn
Subtitles.........: ENG                  Language..........: ENGLISH
Resolution........: 720 x 320            IMDb URL..........: http://www.imdb.com/title/tt0458339/

[color=yellow]DETAILS:[/color]

Video
ID                               : 0
Format                           : MPEG-4 Visual
Format profile                   : Advanced Simple@L5
Format settings, BVOP            : 2
Format settings, QPel            : No
Format settings, GMC             : No warppoints
Format settings, Matrix          : Default (MPEG)
Muxing mode                      : Packed bitstream
Codec ID                         : XVID
Codec ID/Hint                    : XviD
Duration                         : 1h 53mn
Bit rate                         : 1 581 Kbps
Width                            : 720 pixels
Height                           : 320 pixels
Display aspect ratio             : 2.25:1
Frame rate                       : 29.970 fps
Color space                      : YUV
Chroma subsampling               : 4:2:0
Bit depth                        : 8 bits
Scan type                        : Progressive
Compression mode                 : Lossy
Bits/(Pixel*Frame)               : 0.229
Stream size                      : 1.26 GiB (92%)
Writing library                  : XviD 64

Audio
ID                               : 1
Format                           : MPEG Audio
Format version                   : Version 1
Format profile                   : Layer 3
Codec ID                         : 55
Codec ID/Hint                    : MP3
Duration                         : 1h 53mn
Bit rate mode                    : Constant
Bit rate                         : 128 Kbps
Channel(s)                       : 2 channels
Sampling rate                    : 44.1 KHz
Compression mode                 : Lossy
Stream size                      : 104 MiB (7%)
Alignment                        : Split accross interleaves
Interleave, duration             : 33 ms (1.00 video frame)
Interleave, preload duration     : 500 ms



[color=yellow]SOURCES:[/color]

VIDEO:Erdna ...Thanks
AUDIO:Thanks m8ty

[color=yellow]NOTES:[/color]

Ok seems there some unhappy users who wanted the erdna video with our line audio so,here you go ;-)
Video as been filtered nicely and not butchered to death like some.
Audio taken off our first release and resynced to this video ... had to remove 4secs of audio as there
was no video for it and also needed a 13 sec audio offset as this video is missing some of the intro.

Take ya point now and enjoy :P

[color=yellow]SCREENS:[/color]


                         [color=yellow]GREETS:[/color]

             FLAWL3SS,KINOPARK,Rx,ELEKTRI4KA,ADDiCTED,Autotron,CiNEDUB,CRYS
                   And to all the other p2p grps past and present 

[COLOR=RED]Looking for these,syncers,cammers,audio,silver supplier.....Have anything to offer????......
Contact us imaginegroup@hushmail.com[/COLOR]